<svg xmlns="http://www.w3.org/2000/svg" viewBox="0 0 693.83 174.96"><defs><style>.cls-1{fill:#225595;}.cls-2{fill:#e3322b;}</style></defs><title>Asset 1</title><g id="Layer_2" data-name="Layer 2"><g id="Layer_1-2" data-name="Layer 1"><path class="cls-1" d="M462.49,131.27a3.92,3.92,0,0,0-1-1,4.33,4.33,0,0,0-2.68-.88H453v19.84h5.83a4.49,4.49,0,0,0,2.81-.92,2.66,2.66,0,0,0,1.21-2.1v-5l-1.66-1.89,1.66-2V132.5a2.05,2.05,0,0,0-.1-.65,3.06,3.06,0,0,0-.27-.58m-2.89,16.27h-3.26v-7.31h3.26Zm0-9.08h-3.26v-7.31h3.26Z"/><path class="cls-1" d="M482,136.05H478.7v11.54h-3.23V136.05H472.2v10.32a2.36,2.36,0,0,0,.07.58,2.69,2.69,0,0,0,.2.51,3.5,3.5,0,0,0,.92.93,4.51,4.51,0,0,0,2.83.89l7,0v-1.66H482Z"/><path class="cls-1" d="M524.41,136h-2.53a4.38,4.38,0,0,0-1.59.32,5.2,5.2,0,0,0-1.19.59,2.65,2.65,0,0,0-1.19,2v7.31a2.14,2.14,0,0,0,.37,1.2,4.64,4.64,0,0,0,3.63,1.79h1.8a4.12,4.12,0,0,0,1.56-.29,5.82,5.82,0,0,0,1.2-.62,2.6,2.6,0,0,0,1.2-2V129.43h-3.26Zm0,11.55h-3.24v-9.84h3.24Z"/><path class="cls-1" d="M508.1,130.66a4.38,4.38,0,0,0-.9-.78,2.12,2.12,0,0,0-1-.34,4.34,4.34,0,0,0-.53-.1h-.42v19.83h3.23V136l.06-4.29a1.25,1.25,0,0,0-.11-.5,2.17,2.17,0,0,0-.35-.5"/><path class="cls-1" d="M493.9,134.63l.41,0a1.91,1.91,0,0,0,1-.44,1,1,0,0,0,.3-.69,1.07,1.07,0,0,0-.43-.86,1.6,1.6,0,0,0-1.1-.36l-.45,0a2,2,0,0,0-1,.43.94.94,0,0,0-.32.7,1,1,0,0,0,.46.84,1.76,1.76,0,0,0,1.13.37"/><path class="cls-1" d="M494.56,136.43a4,4,0,0,0-1.9-.38v13.2h3.26v-11a1.58,1.58,0,0,0-.45-1,3.36,3.36,0,0,0-.91-.76"/><path class="cls-1" d="M551.83,136H550a4.71,4.71,0,0,0-1.59.31,4.12,4.12,0,0,0-1.17.6,3.62,3.62,0,0,0-.86.89,1.87,1.87,0,0,0-.34,1.09v7.27a2.7,2.7,0,0,0,1.08,2.06,4.14,4.14,0,0,0,2.75,1h1.92a4.58,4.58,0,0,0,2.8-.88,3.85,3.85,0,0,0,.93-.92,2.19,2.19,0,0,0,.28-1.12V139a2.5,2.5,0,0,0-1.31-2.13,4.77,4.77,0,0,0-2.69-.87m.7,11.55h-3.25v-9.84h3.25Z"/><path class="cls-1" d="M575,136.9a4.92,4.92,0,0,0-2.84-.88l-7,0v1.66h1.28v11.54h3.26V137.71H573v11.54h3.26V138.91a2.13,2.13,0,0,0-.3-1.1,3,3,0,0,0-.9-.91"/><path class="cls-1" d="M599.52,137.73h3.26v-1.68h-3.26v-6.62h-3.26v6.62H595v1.68h1.28v8.62a2.09,2.09,0,0,0,.3,1.1,3.33,3.33,0,0,0,.91.94,4.61,4.61,0,0,0,2.8.89h4.33v-1.66l-5.08,0Z"/><path class="cls-1" d="M616.38,136.34a6.58,6.58,0,0,0-1.24.59,2.63,2.63,0,0,0-1.19,2v10.33h3.26V137.73h3.25v2.78h3.25v-4.46h-5.78a4.29,4.29,0,0,0-1.55.29"/><path class="cls-1" d="M655,137a2.51,2.51,0,0,0-1.24,2v1.11a2.76,2.76,0,0,0,1.11,2.19,4.79,4.79,0,0,0,3.1,1h2.29v4.31H657v-1.84h-3.26v3.55h5.75a4.77,4.77,0,0,0,1.68-.27,4.3,4.3,0,0,0,1.33-.79,2.39,2.39,0,0,0,1-1.84v-1.83a2.56,2.56,0,0,0-1.21-2.11,4.55,4.55,0,0,0-2.72-.87H657v-3.83h3.24v1.92h3.26v-3.61h-5.31a5.33,5.33,0,0,0-3.21.9"/><path class="cls-1" d="M677.09,147.59v-9.86h3.26v-1.68h-3.26v-6.62h-3.26v6.62h-1.28v1.68h1.28v8.62a2.09,2.09,0,0,0,.3,1.1,3.34,3.34,0,0,0,.91,1,4.64,4.64,0,0,0,2.8.88h4.33v-1.66Z"/><path class="cls-1" d="M643.08,136.05h-3.26v11.54h-3.23V136.05h-3.27v10.32a2.36,2.36,0,0,0,.07.58,2.16,2.16,0,0,0,.2.51,3.36,3.36,0,0,0,.92.93,4.5,4.5,0,0,0,2.82.89l7,0v-1.66h-1.3Z"/><rect class="cls-1" x="167.67" y="138.48" width="278.33" height="1.73"/><path class="cls-1" d="M273.14,58.32V69.1H242.35V81.6H270.6v10H242.35v14.29h31.44v10.78H229.53V58.32Z"/><path class="cls-1" d="M326.32,116.63l-9.88-39.69h-.16l-9.72,39.69h-13L278.14,58.32H291L300.19,98h.16l10.13-39.69h12l10,40.18h.16l6.12-25.92H351.3l-12.24,44.05Z"/><path class="cls-1" d="M339.55,69.1l2.54-10.78h53V69.1H377.56v47.53H364.74V69.1Z"/><path class="cls-1" d="M445.34,58.32V69.1H414.55V81.6h28.26v10H414.55v14.29H446v10.78H401.73V58.32Z"/><path class="cls-1" d="M491.56,73.88a13.08,13.08,0,0,0-2.86-3.22,13.28,13.28,0,0,0-3.88-2.17,13.51,13.51,0,0,0-4.53-.77,15,15,0,0,0-7.35,1.67,13.83,13.83,0,0,0-4.9,4.49,19.55,19.55,0,0,0-2.74,6.41,32.07,32.07,0,0,0-.86,7.43,29.78,29.78,0,0,0,.86,7.15,19.16,19.16,0,0,0,2.74,6.25,14,14,0,0,0,4.9,4.45,15,15,0,0,0,7.35,1.67q5.88,0,9.18-3.59a16.59,16.59,0,0,0,4-9.47h12.41a29.79,29.79,0,0,1-2.53,9.88,23.68,23.68,0,0,1-5.39,7.51,23,23,0,0,1-7.84,4.74,28.72,28.72,0,0,1-9.88,1.63,29.77,29.77,0,0,1-12.05-2.33,25.64,25.64,0,0,1-9-6.41,28.44,28.44,0,0,1-5.64-9.59,35.19,35.19,0,0,1-2-11.89,36.33,36.33,0,0,1,2-12.12,29.13,29.13,0,0,1,5.64-9.76,25.7,25.7,0,0,1,9-6.54,31.4,31.4,0,0,1,21.15-1,24.75,24.75,0,0,1,7.68,4,21.86,21.86,0,0,1,5.59,6.57,23.48,23.48,0,0,1,2.78,9H493A10.56,10.56,0,0,0,491.56,73.88Z"/><path class="cls-1" d="M514.1,75.6a28.94,28.94,0,0,1,5.63-9.76,25.79,25.79,0,0,1,9-6.54,32,32,0,0,1,24.14,0,25.82,25.82,0,0,1,9,6.54,29.13,29.13,0,0,1,5.64,9.76,36.59,36.59,0,0,1,2,12.12,35.43,35.43,0,0,1-2,11.89,28.44,28.44,0,0,1-5.64,9.59,25.75,25.75,0,0,1-9,6.41,32.43,32.43,0,0,1-24.14,0,25.73,25.73,0,0,1-9-6.41,28.26,28.26,0,0,1-5.63-9.59,35.19,35.19,0,0,1-2-11.89A36.33,36.33,0,0,1,514.1,75.6Zm11.71,19.27a19.59,19.59,0,0,0,2.74,6.25,14.09,14.09,0,0,0,4.9,4.45,17,17,0,0,0,14.7,0,14.09,14.09,0,0,0,4.9-4.45,19.59,19.59,0,0,0,2.74-6.25,29.77,29.77,0,0,0,.85-7.15,32.06,32.06,0,0,0-.85-7.43,20,20,0,0,0-2.74-6.41,13.91,13.91,0,0,0-4.9-4.49,17,17,0,0,0-14.7,0,13.91,13.91,0,0,0-4.9,4.49,20,20,0,0,0-2.74,6.41,32.06,32.06,0,0,0-.85,7.43A29.77,29.77,0,0,0,525.81,94.87Z"/><path class="cls-1" d="M590.94,58.32l24.34,39.12h.16V58.32h12v58.31H614.63l-24.26-39h-.16v39h-12V58.32Z"/><path class="cls-1" d="M180.41,58.32l24.33,39.12h.17V58.32h12v58.31H204.09l-24.25-39h-.17v39h-12V58.32Z"/><path class="cls-1" d="M648.52,102.26a9.28,9.28,0,0,0,2.82,3.31,12.27,12.27,0,0,0,4.12,1.88,19.41,19.41,0,0,0,4.9.61,25.8,25.8,0,0,0,3.68-.29,12.59,12.59,0,0,0,3.67-1.1,8,8,0,0,0,2.86-2.24,5.68,5.68,0,0,0,1.14-3.64A5.11,5.11,0,0,0,670.2,97a12.15,12.15,0,0,0-4-2.45,39.76,39.76,0,0,0-5.55-1.71q-3.11-.74-6.29-1.64a54.79,54.79,0,0,1-6.37-2,21.87,21.87,0,0,1-5.55-3.06A13.72,13.72,0,0,1,637,74.58a15.24,15.24,0,0,1,1.92-7.8,17.38,17.38,0,0,1,5-5.52A21.85,21.85,0,0,1,651,58a29.78,29.78,0,0,1,7.84-1.06,37.16,37.16,0,0,1,8.78,1,22,22,0,0,1,7.47,3.3,16.85,16.85,0,0,1,5.19,5.84,18,18,0,0,1,1.92,8.62H669.75a10.42,10.42,0,0,0-1.1-4.33,7.27,7.27,0,0,0-2.49-2.69,10.41,10.41,0,0,0-3.55-1.39,22.07,22.07,0,0,0-4.37-.41,14.94,14.94,0,0,0-3.11.33,8.2,8.2,0,0,0-2.81,1.14,7,7,0,0,0-2.09,2,5.52,5.52,0,0,0-.81,3.1,5.2,5.2,0,0,0,.65,2.78,5.84,5.84,0,0,0,2.57,2,32.85,32.85,0,0,0,5.31,1.8q3.39.9,8.86,2.28c1.09.22,2.6.62,4.53,1.19a21.54,21.54,0,0,1,5.76,2.73,17.44,17.44,0,0,1,4.94,5,14.25,14.25,0,0,1,2.09,8,17.7,17.7,0,0,1-1.56,7.43,16.07,16.07,0,0,1-4.61,5.92,22,22,0,0,1-7.6,3.88,35.73,35.73,0,0,1-10.49,1.39,36.81,36.81,0,0,1-9.35-1.18,23.46,23.46,0,0,1-8-3.72,18.34,18.34,0,0,1-5.52-6.45,19.32,19.32,0,0,1-2-9.31h12.42A10.66,10.66,0,0,0,648.52,102.26Z"/><path class="cls-1" d="M693.83,62.61a5.83,5.83,0,1,1-5.78-5.67A5.71,5.71,0,0,1,693.83,62.61Zm-10.21,0a4.43,4.43,0,0,0,4.43,4.54,4.35,4.35,0,0,0,4.33-4.5,4.38,4.38,0,1,0-8.76,0Zm3.5,2.94H685.8V59.88A15.14,15.14,0,0,1,688,59.7a3.06,3.06,0,0,1,1.94.45,1.44,1.44,0,0,1,.59,1.22,1.47,1.47,0,0,1-1.18,1.35v.07c.56.17.83.62,1,1.38a5.08,5.08,0,0,0,.41,1.38h-1.38a4.39,4.39,0,0,1-.45-1.38c-.11-.59-.45-.87-1.18-.87h-.62Zm0-3.18h.63c.72,0,1.31-.24,1.31-.83s-.38-.87-1.21-.87a3.44,3.44,0,0,0-.73.07Z"/><polygon class="cls-2" points="43.74 21.87 102.06 117.3 102.06 76.34 55.4 0 55.4 0 0 0 0 174.96 0 174.96 21.87 174.96 54.67 174.96 54.67 153.09 21.87 153.09 21.87 21.87 43.74 21.87"/><polygon class="cls-2" points="102.06 153.09 43.74 57.66 43.74 98.61 90.39 174.96 90.39 174.96 145.8 174.96 145.8 174.96 145.8 174.96 145.8 0 145.8 0 123.93 0 91.12 0 91.12 21.87 123.93 21.87 123.93 153.09 102.06 153.09"/></g></g></svg>